<?xml version="1.0" encoding="UTF-8"?>
<svg width="95px" height="14px" viewBox="0 0 95 14" version="1.1" xmlns="http://www.w3.org/2000/svg" xmlns:xlink="http://www.w3.org/1999/xlink">
    <title>status bar contents</title>
    <g id="Symbols" stroke="none" stroke-width="1" fill="none" fill-rule="evenodd">
        <g id="Material/Android/Status-bar-360dp-black" transform="translate(-257.000000, -5.000000)">
            <g id="status-bar-contents" transform="translate(256.000000, 4.000000)">
                <g id="time" opacity="0.9" transform="translate(60.000000, 0.000000)" fill="#FFFFFF" font-family="Helvetica" font-size="14" font-weight="normal">
                    <text id="12:30">
                        <tspan x="0.965820312" y="14">12:30</tspan>
                    </text>
                </g>
                <g id="battery" transform="translate(41.000000, 0.000000)">
                    <polygon id="bounds" points="0 0 16 0 16 16 0 16"></polygon>
                    <polygon id="Shape" fill="#FFFFFF" points="9 1.875 9 1 6 1 6 1.875 3 1.875 3 15 12 15 12 1.875"></polygon>
                </g>
                <g id="cellular" transform="translate(21.000000, 0.000000)">
                    <polygon id="bounds" points="0 0 16 0 16 16 0 16"></polygon>
                    <polygon id="Shape" fill="#FFFFFF" points="0 15 14 15 14 1"></polygon>
                </g>
                <g id="wifi">
                    <polygon id="bounds" points="2 0 18 0 18 16 2 16"></polygon>
                    <path d="M10,1 C13.3872942,1 16.5123517,2.12276889 19.0233159,4.01645006 L10,15 L0.977389046,4.01591844 C3.48823315,2.12255876 6.61302275,1 10,1 Z" id="Shape" fill="#FFFFFF"></path>
                </g>
            </g>
        </g>
    </g>
</svg>